<svg id="Holcim_Group_Endorsement_Holcim" xmlns="http://www.w3.org/2000/svg" xmlns:xlink="http://www.w3.org/1999/xlink" width="140.206" height="30.076" viewBox="0 0 140.206 30.076">
  <defs>
    <linearGradient id="linear-gradient" x1="-0.029" y1="0.713" x2="1.026" y2="0.287" gradientUnits="objectBoundingBox">
      <stop offset="0.15" stop-color="#94c12e"/>
      <stop offset="0.186" stop-color="#8dc137"/>
      <stop offset="0.245" stop-color="#7bc04f"/>
      <stop offset="0.32" stop-color="#5ebf77"/>
      <stop offset="0.407" stop-color="#35bdae"/>
      <stop offset="0.5" stop-color="#04bbf1"/>
      <stop offset="0.586" stop-color="#05b7ed"/>
      <stop offset="0.674" stop-color="#07ace0"/>
      <stop offset="0.764" stop-color="#0b98cc"/>
      <stop offset="0.855" stop-color="#117daf"/>
      <stop offset="0.946" stop-color="#185b8a"/>
      <stop offset="1" stop-color="#1d4370"/>
    </linearGradient>
  </defs>
  <path id="Pfad_12980" data-name="Pfad 12980" d="M19.914,0a8.45,8.45,0,0,0-8.4,6.534,15.535,15.535,0,0,0-.328,3.444V12.9h6.264V6.259h4.924v10.8A8.735,8.735,0,0,0,28.64,8.692,8.6,8.6,0,0,0,19.914,0ZM8.649,30.07a8.537,8.537,0,0,0,8.475-6.534,15.535,15.535,0,0,0,.328-3.444V17.166H11.188V23.81H6.264v-10.8A8.735,8.735,0,0,0,0,21.377,8.3,8.3,0,0,0,8.649,30.07Z" transform="translate(0 0.004)" fill="url(#linear-gradient)"/>
  <path id="Pfad_12981" data-name="Pfad 12981" d="M80.316,10.285H81.3L83.977,16.4H82.849l-.616-1.466H79.362L78.737,16.4H77.644Zm1.527,3.7-1.05-2.429-1.041,2.429Zm7.512-3.661h1.136L92.339,13.2l1.848-2.872h1.137V16.4H94.256V12.046l-1.917,2.863H92.3l-1.9-2.846V16.4h-1.05Zm8.4,0h4.5v.955H98.82v1.579h3.045v.963H98.82v1.622H102.3V16.4H97.753Zm6.679,0h1.137l1.848,2.872,1.848-2.872H110.4V16.4h-1.067V12.046l-1.917,2.863h-.035l-1.9-2.846V16.4h-1.05Zm8.4,0h2.724a2.193,2.193,0,0,1,1.588.538,1.375,1.375,0,0,1,.408,1.006v.017a1.447,1.447,0,0,1-.867,1.354,1.489,1.489,0,0,1,1.206,1.475v.017c0,1.084-.893,1.666-2.247,1.666H112.83Zm3.653,1.718c0-.477-.382-.772-1.067-.772H113.88v1.614h1.457c.685,0,1.145-.269,1.145-.824Zm-.911,1.745H113.88v1.666h1.77c.72,0,1.171-.287,1.171-.833v-.017C116.82,14.093,116.413,13.79,115.571,13.79Zm4.389-3.462h4.5v.954h-3.435v1.579h3.046v.963h-3.045v1.622h3.479V16.4h-4.546Zm6.68,0h2.707a2.448,2.448,0,0,1,1.753.607,1.837,1.837,0,0,1,.5,1.31v.017a1.824,1.824,0,0,1-1.441,1.839l1.64,2.3h-1.267l-1.492-2.117h-1.336V16.4H126.64Zm2.629,3.011c.763,0,1.25-.4,1.25-1.015v-.017c0-.651-.468-1.006-1.258-1.006h-1.553v2.039Zm7.711.043v-.017a3.175,3.175,0,1,1,6.351-.017v.017a3.175,3.175,0,1,1-6.351.017Zm5.232,0v-.017a2.074,2.074,0,0,0-2.065-2.152,2.045,2.045,0,0,0-2.047,2.134v.017a2.073,2.073,0,0,0,2.064,2.151,2.045,2.045,0,0,0,2.048-2.135Zm3.278-3.054h4.52V11.3h-3.453v1.657h3.063v.971h-3.063V16.4H145.49ZM77.985,22.268h2.292v3.075h3.028V22.268H85.6v8.217H83.306V27.362H80.277v3.122H77.985Zm9.6,4.132v-.023a4.414,4.414,0,0,1,8.823-.024v.024a4.414,4.414,0,0,1-8.823.023Zm6.483,0v-.023a2.107,2.107,0,0,0-2.084-2.218,2.065,2.065,0,0,0-2.048,2.195v.024a2.1,2.1,0,0,0,2.072,2.218,2.068,2.068,0,0,0,2.06-2.2Zm4.43-4.132h2.292v6.221h3.79v2H98.5ZM105.73,26.4v-.023a4.235,4.235,0,0,1,4.36-4.273,4.058,4.058,0,0,1,3.509,1.714l-1.725,1.326a2.218,2.218,0,0,0-1.808-.963,2.037,2.037,0,0,0-1.973,2.172v.024a2.038,2.038,0,0,0,1.973,2.195,2.263,2.263,0,0,0,1.867-1l1.725,1.221A4.361,4.361,0,0,1,105.73,26.4Zm9.991-4.132h2.3v8.217h-2.3Zm4.674,0h2.422l2.1,3.181,2.1-3.181h2.422v8.217h-2.28v-4.8L124.92,28.9h-.047L122.64,25.7v4.781h-2.245Zm15.06,4.132v-.024a4.262,4.262,0,0,1,4.413-4.273,4.785,4.785,0,0,1,3.333,1.186l-1.338,1.62a2.875,2.875,0,0,0-1.983-.775,2.148,2.148,0,0,0-2.1,2.242V26.4a2.173,2.173,0,0,0,2.23,2.289,2.268,2.268,0,0,0,1.314-.34v-1h-1.608V25.683h3.767v3.686a5.472,5.472,0,0,1-3.568,1.279,4.214,4.214,0,0,1-4.46-4.249Zm10.15-4.132h3.884a3.638,3.638,0,0,1,2.676.88,2.567,2.567,0,0,1,.728,1.913v.023a2.6,2.6,0,0,1-1.69,2.535l1.96,2.864h-2.617L148.891,28h-1.009v2.488H145.6Zm3.791,3.944c.763,0,1.22-.376,1.22-.974v-.023c0-.657-.481-.986-1.232-.986h-1.5v1.983Zm5.232.188v-.024a4.428,4.428,0,0,1,8.849-.023v.023a4.428,4.428,0,0,1-8.849.024Zm6.514,0v-.024a2.118,2.118,0,0,0-2.1-2.218,2.1,2.1,0,0,0-2.089,2.195v.023a2.135,2.135,0,0,0,2.113,2.219,2.094,2.094,0,0,0,2.077-2.195Zm4.269.481V22.268h2.3v4.566c0,1.186.6,1.749,1.514,1.749s1.526-.54,1.526-1.69V22.268h2.3v4.554c0,2.641-1.514,3.815-3.849,3.815s-3.791-1.185-3.791-3.756Zm9.845-4.613h3.533c2.065,0,3.4,1.068,3.4,2.876v.023c0,1.949-1.491,2.97-3.521,2.97h-1.138v2.347h-2.277Zm3.368,4.085c.8,0,1.3-.434,1.3-1.08v-.024c0-.7-.5-1.068-1.315-1.068h-1.08v2.172Z" transform="translate(-41.986 -5.504)" fill="#1d4370"/>
</svg>
